HIERARCHY
ROOT hip
{
  OFFSET 302.036 85.6087 -21.0618
  CHANNELS 6 Xposition Yposition Zposition Zrotation Xrotation Yrotation
  JOINT abdomen
  {
    OFFSET 0 20.6881 -0.73152
    CHANNELS 3 Zrotation Xrotation Yrotation
    JOINT chest
    {
      OFFSET 0 11.7043 -0.48768
      CHANNELS 3 Zrotation Xrotation Yrotation
      JOINT neck
      {
        OFFSET 0 22.1894 -2.19456
        CHANNELS 3 Zrotation Xrotation Yrotation
        JOINT head
        {
          OFFSET -0.24384 7.07133 1.2192
          CHANNELS 3 Zrotation Xrotation Yrotation
          JOINT leftEye
          {
            OFFSET 4.14528 8.04674 8.04672
            CHANNELS 3 Zrotation Xrotation Yrotation
            End Site
            {
              OFFSET 1 0 0
            }
          }
          JOINT rightEye
          {
            OFFSET -3.6576 8.04674 8.04672
            CHANNELS 3 Zrotation Xrotation Yrotation
            End Site
            {
              OFFSET 1 0 0
            }
          }
        }
      }
      JOINT rCollar
      {
        OFFSET -2.68224 19.2634 -4.8768
        CHANNELS 3 Zrotation Xrotation Yrotation
        JOINT rShldr
        {
          OFFSET -8.77824 -1.95073 1.46304
          CHANNELS 3 Zrotation Xrotation Yrotation
          JOINT rForeArm
          {
            OFFSET -28.1742 -1.7115 0.48768
            CHANNELS 3 Zrotation Xrotation Yrotation
            JOINT rHand
            {
              OFFSET -22.5879 0.773209 7.07136
              CHANNELS 3 Zrotation Xrotation Yrotation
              JOINT rThumb1
              {
                OFFSET -1.2192 -0.487915 3.41376
                CHANNELS 3 Zrotation Xrotation Yrotation
                JOINT rThumb2
                {
                  OFFSET -3.37035 -0.52449 3.41376
                  CHANNELS 3 Zrotation Xrotation Yrotation
                  End Site
                  {
                    OFFSET -1.78271 -1.18214 1.43049
                  }
                }
              }
              JOINT rIndex1
              {
                OFFSET -7.75947 0.938293 5.60832
                CHANNELS 3 Zrotation Xrotation Yrotation
                JOINT rIndex2
                {
                  OFFSET -2.54057 -0.884171 1.56538
                  CHANNELS 3 Zrotation Xrotation Yrotation
                  End Site
                  {
                    OFFSET -1.62519 -0.234802 1.16502
                  }
                }
              }
              JOINT rMid1
              {
                OFFSET -8.24714 1.18213 3.41376
                CHANNELS 3 Zrotation Xrotation Yrotation
                JOINT rMid2
                {
                  OFFSET -3.10165 -0.590103 1.0647
                  CHANNELS 3 Zrotation Xrotation Yrotation
                  End Site
                  {
                    OFFSET -2.48547 -0.328903 0.83742
                  }
                }
              }
              JOINT rRing1
              {
                OFFSET -8.82822 0.546677 1.51678
                CHANNELS 3 Zrotation Xrotation Yrotation
                JOINT rRing2
                {
                  OFFSET -2.60934 -0.819778 -0.0198488
                  CHANNELS 3 Zrotation Xrotation Yrotation
                  End Site
                  {
                    OFFSET -2.33842 -0.294052 0.168128
                  }
                }
              }
              JOINT rPinky1
              {
                OFFSET -8.27202 -0.0477905 -0.4584
                CHANNELS 3 Zrotation Xrotation Yrotation
                JOINT rPinky2
                {
                  OFFSET -1.82734 -0.647385 -0.700984
                  CHANNELS 3 Zrotation Xrotation Yrotation
                  End Site
                  {
                    OFFSET -1.69225 -0.51767 -0.607171
                  }
                }
              }
            }
          }
        }
      }
      JOINT lCollar
      {
        OFFSET 2.68224 19.2634 -4.8768
        CHANNELS 3 Zrotation Xrotation Yrotation
        JOINT lShldr
        {
          OFFSET 8.77824 -1.95073 1.46304
          CHANNELS 3 Zrotation Xrotation Yrotation
          JOINT lForeArm
          {
            OFFSET 28.1742 -1.7115 0.48768
            CHANNELS 3 Zrotation Xrotation Yrotation
            JOINT lHand
            {
              OFFSET 22.5879 0.773209 7.07136
              CHANNELS 3 Zrotation Xrotation Yrotation
              JOINT lThumb1
              {
                OFFSET 1.2192 -0.487915 3.41376
                CHANNELS 3 Zrotation Xrotation Yrotation
                JOINT lThumb2
                {
                  OFFSET 3.37035 -0.52449 3.41376
                  CHANNELS 3 Zrotation Xrotation Yrotation
                  End Site
                  {
                    OFFSET 1.78271 -1.18214 1.43049
                  }
                }
              }
              JOINT lIndex1
              {
                OFFSET 7.75947 0.938293 5.60832
                CHANNELS 3 Zrotation Xrotation Yrotation
                JOINT lIndex2
                {
                  OFFSET 2.54057 -0.884171 1.56538
                  CHANNELS 3 Zrotation Xrotation Yrotation
                  End Site
                  {
                    OFFSET 1.62519 -0.234802 1.16502
                  }
                }
              }
              JOINT lMid1
              {
                OFFSET 8.24714 1.18213 3.41376
                CHANNELS 3 Zrotation Xrotation Yrotation
                JOINT lMid2
                {
                  OFFSET 3.10165 -0.590103 1.0647
                  CHANNELS 3 Zrotation Xrotation Yrotation
                  End Site
                  {
                    OFFSET 2.48547 -0.328903 0.83742
                  }
                }
              }
              JOINT lRing1
              {
                OFFSET 8.82822 0.546677 1.51678
                CHANNELS 3 Zrotation Xrotation Yrotation
                JOINT lRing2
                {
                  OFFSET 2.60934 -0.819778 -0.0198488
                  CHANNELS 3 Zrotation Xrotation Yrotation
                  End Site
                  {
                    OFFSET 2.33842 -0.294052 0.168128
                  }
                }
              }
              JOINT lPinky1
              {
                OFFSET 8.27202 -0.0477905 -0.4584
                CHANNELS 3 Zrotation Xrotation Yrotation
                JOINT lPinky2
                {
                  OFFSET 1.82734 -0.647385 -0.700984
                  CHANNELS 3 Zrotation Xrotation Yrotation
                  End Site
                  {
                    OFFSET 1.69225 -0.51767 -0.607171
                  }
                }
              }
            }
          }
        }
      }
    }
  }
  JOINT rButtock
  {
    OFFSET -8.77824 4.35084 1.2192
    CHANNELS 3 Zrotation Xrotation Yrotation
    JOINT rThigh
    {
      OFFSET 0 -1.70687 -2.19456
      CHANNELS 3 Zrotation Xrotation Yrotation
      JOINT rShin
      {
        OFFSET 0 -36.8199 0.73152
        CHANNELS 3 Zrotation Xrotation Yrotation
        JOINT rFoot
        {
          OFFSET 0.73152 -45.1104 -5.12064
          CHANNELS 3 Zrotation Xrotation Yrotation
          End Site
          {
            OFFSET -1.1221 -3.69964 12.103
          }
        }
      }
    }
  }
  JOINT lButtock
  {
    OFFSET 8.77824 4.35084 1.2192
    CHANNELS 3 Zrotation Xrotation Yrotation
    JOINT lThigh
    {
      OFFSET 0 -1.70687 -2.19456
      CHANNELS 3 Zrotation Xrotation Yrotation
      JOINT lShin
      {
        OFFSET 0 -36.8199 0.73152
        CHANNELS 3 Zrotation Xrotation Yrotation
        JOINT lFoot
        {
          OFFSET -0.73152 -45.1104 -5.12064
          CHANNELS 3 Zrotation Xrotation Yrotation
          End Site
          {
            OFFSET 1.1221 -3.69964 12.103
          }
        }
      }
    }
  }
}
MOTION
Frames:	4
Frame Time:	0.00833333
-177.216 84.0842 -6.35031 1.175 0.00318821 -0.0220112 -1.54497 -0.0028461 -0.0420524 -0.425435 0.00111028 -0.0736772 -8.56886e-015 7.95139e-016 -2.48481e-016 -2.56619e-014 9.54166e-015 -6.01013e-016 -0 0 0 -0 0 0 -4.22605e-015 -7.22147e-017 0 -8.70999e-014 -1.30452e-015 -1.59028e-015 -1.52706e-012 4.04129e-013 -2.8625e-014 -1.74082e-011 -7.27602e-013 -4.42097e-013 -4.10755e-011 -7.04337e-013 -1.00506e-012 -7.09455e-011 -1.22133e-012 -1.7342e-012 -4.10713e-011 -7.0489e-013 -1.01142e-012 7.73091 5.47488 0.417314 -4.10765e-011 -7.05189e-013 -1.00187e-012 2.90554 0.965183 0.102902 -4.10682e-011 -7.04195e-013 -1.00665e-012 10.2786 0.731801 0.0259123 -4.10834e-011 -7.01312e-013 -9.95514e-013 2.22167 -0.733487 -0.20892 -4.32197e-015 -7.18265e-017 -1.98785e-016 -9.1066e-014 -1.41013e-015 -3.57812e-015 -1.51454e-012 -5.0869e-013 -3.18055e-014 -1.74229e-011 1.84845e-013 -4.32555e-013 -4.1077e-011 -7.07417e-013 -1.00187e-012 -7.0922e-011 -1.22133e-012 -1.72625e-012 -4.1082e-011 -7.07673e-013 -9.95514e-013 -7.73091 5.47488 -0.417314 -4.1076e-011 -7.07773e-013 -1.00506e-012 -2.90554 0.965183 -0.102902 -4.1084e-011 -7.07375e-013 -1.00187e-012 -10.2786 0.731801 -0.0259123 -4.10651e-011 -7.02903e-013 -1.01142e-012 -2.22167 -0.733487 0.20892 -2.03217e-016 0 -3.88251e-019 -0.631345 -1.92333 -0.00659142 -0.0094532 -2.07853 -0.0781834 -0.541195 3.99724 0.144604 2.03217e-016 0 3.88251e-019 -1.71404 -6.54911 0.158514 -0.00227401 6.30069 -0.0691022 0.559075 0.243936 -0.0685977 
-174.661 81.595 -12.8379 7.82073 13.3701 23.3684 -4.01165 -1.53802 -0.117389 0.024613 0.409294 -0.0974564 1.20746 1.94864 0.110435 -0.294437 -6.83463 -0.0248638 -0 0 0 -0 0 0 6.1299e-015 -1.69016e-013 -1.75489e-016 27.0965 -34.2123 0.191554 0.114386 0.0280725 -0.195669 3.21739 41.6585 1.36442 -1.54772e-010 1.2063e-010 -3.59202e-010 -2.84938e-010 2.01305e-010 -5.60131e-010 -1.54768e-010 1.2063e-010 -3.59207e-010 7.73091 5.47488 0.417314 -1.54774e-010 1.20629e-010 -3.59198e-010 2.90554 0.965183 0.102902 -1.54764e-010 1.20631e-010 -3.59204e-010 10.2786 0.731801 0.0259123 -1.54778e-010 1.20633e-010 -3.59194e-010 2.22167 -0.733487 -0.20892 6.03522e-015 -1.69021e-013 -4.04946e-016 -22.2945 -5.20844 -0.722806 1.37495 -0.427785 -2.31568 -0.105354 7.5926 -1.03772 1.76576e-010 -2.74491e-010 -7.98651e-010 2.8864e-010 -4.74363e-010 -1.38334e-009 1.76573e-010 -2.7449e-010 -7.98644e-010 -7.73091 5.47488 -0.417314 1.76579e-010 -2.74491e-010 -7.98658e-010 -2.90554 0.965183 -0.102902 1.76571e-010 -2.74491e-010 -7.98651e-010 -10.2786 0.731801 -0.0259123 1.76586e-010 -2.74488e-010 -7.98658e-010 -2.22167 -0.733487 0.20892 -2.03217e-016 0 -3.88251e-019 -1.99012 -7.54747 0.448298 -0.0396358 16.8156 0.156276 -0.35375 4.97974 2.18063 2.03217e-016 0 3.88251e-019 -2.89381 -13.0172 -0.350997 0.0806842 15.5121 -0.0940533 0.272243 -4.9698 -1.18269 
-173.236 81.7649 -12.9077 3.85667 19.8768 50.7184 -6.62212 -3.19206 -0.171197 0.48783 0.848586 -0.114878 2.48128 4.01053 0.223654 -0.608948 -14.0631 -0.0601093 -0 0 0 -0 0 0 2.06899e-014 -3.91315e-013 1.62755e-015 56.5466 -70.3953 1.06004 0.261718 0.0645135 -0.446979 -17.5987 85.244 26.1623 -2.73776e-010 2.55707e-010 -7.57746e-010 -5.11388e-010 4.26871e-010 -1.1824e-009 -2.73772e-010 2.55707e-010 -7.57748e-010 7.73091 5.47488 0.417314 -2.73779e-010 2.55705e-010 -7.5774e-010 2.90554 0.965183 0.102902 -2.73767e-010 2.55707e-010 -7.57747e-010 10.2786 0.731801 0.0259123 -2.7378e-010 2.55708e-010 -7.57738e-010 2.22167 -0.733487 -0.20892 2.05966e-014 -3.91326e-013 1.36354e-015 -45.9869 -11.0078 -1.41419 2.74818 -0.858896 -4.69448 0.1033 15.8863 -2.23855 3.9704e-010 -5.81992e-010 -1.68848e-009 6.51292e-010 -1.00572e-009 -2.92445e-009 3.97038e-010 -5.8199e-010 -1.68847e-009 -7.73091 5.47488 -0.417314 3.97044e-010 -5.81992e-010 -1.68849e-009 -2.90554 0.965183 -0.102902 3.97035e-010 -5.81991e-010 -1.68848e-009 -10.2786 0.731801 -0.0259123 3.97046e-010 -5.8199e-010 -1.68848e-009 -2.22167 -0.733487 0.20892 -2.03217e-016 0 -3.88251e-019 -3.32026 -13.4286 0.973879 -0.27431 36.7816 0.48679 -0.239293 6.13715 4.3694 2.03217e-016 0 3.88251e-019 -4.24926 -19.9468 -0.89841 0.180144 25.2716 -0.122937 -0.273122 -10.4331 -2.46108 
-171.839 81.8777 -12.9657 -3.18427 14.8618 73.7862 -8.95715 -4.60834 -0.268803 0.925726 1.22566 -0.14504 3.59974 5.84582 0.332844 -0.902131 -20.5039 -0.0790706 -0 0 0 -0 0 0 2.68418e-014 -5.06904e-013 -5.26468e-016 -101.152 -77.3538 177.829 0.343733 0.0842136 -0.587007 -163.27 54.884 174.679 -3.82166e-010 3.633e-010 -1.0756e-009 -7.12923e-010 6.06357e-010 -1.67693e-009 -3.82161e-010 3.63301e-010 -1.0756e-009 7.73091 5.47488 0.417314 -3.82169e-010 3.63297e-010 -1.07559e-009 2.90554 0.965183 0.102902 -3.82156e-010 3.633e-010 -1.0756e-009 10.2786 0.731801 0.0259123 -3.82168e-010 3.63301e-010 -1.07559e-009 2.22167 -0.733487 -0.20892 2.67496e-014 -5.0692e-013 -8.17268e-016 -67.2904 -15.6152 -2.24226 4.02137 -1.27497 -6.94857 0.567719 22.7466 -3.34641 6.11883e-010 -8.22058e-010 -2.39395e-009 1.00777e-009 -1.42065e-009 -4.14656e-009 6.11882e-010 -8.22055e-010 -2.39394e-009 -7.73091 5.47488 -0.417314 6.11889e-010 -8.22058e-010 -2.39396e-009 -2.90554 0.965183 -0.102902 6.1188e-010 -8.22058e-010 -2.39395e-009 -10.2786 0.731801 -0.0259123 6.11887e-010 -8.22058e-010 -2.39395e-009 -2.22167 -0.733487 0.20892 -2.03217e-016 0 -3.88251e-019 -4.42656 -18.7911 1.42224 -0.821476 54.5996 1.04451 -0.189224 6.91422 6.2745 2.03217e-016 0 3.88251e-019 -5.6326 -25.9464 -1.49123 0.276814 33.9348 -0.162127 -0.928652 -15.3727 -3.52375 
